<?xml version="1.0" encoding="UTF-8" standalone="no"?>
<!-- Created with Inkscape (http://www.inkscape.org/) -->

<svg
   width="62.511402mm"
   height="61.868557mm"
   viewBox="0 0 62.511402 61.868557"
   version="1.1"
   id="svg1"
   xml:space="preserve"
   xmlns:inkscape="http://www.inkscape.org/namespaces/inkscape"
   xmlns:sodipodi="http://sodipodi.sourceforge.net/DTD/sodipodi-0.dtd"
   xmlns="http://www.w3.org/2000/svg"
   xmlns:svg="http://www.w3.org/2000/svg"><sodipodi:namedview
     id="namedview1"
     pagecolor="#000000"
     bordercolor="#000000"
     borderopacity="0.24705882"
     inkscape:showpageshadow="2"
     inkscape:pageopacity="0.0"
     inkscape:pagecheckerboard="0"
     inkscape:deskcolor="#d1d1d1"
     inkscape:document-units="mm"
     inkscape:export-bgcolor="#00000000"><inkscape:page
       x="0"
       y="-4.5179599e-14"
       width="62.511402"
       height="61.868561"
       id="page2"
       margin="0"
       bleed="0" /></sodipodi:namedview><defs
     id="defs1" /><g
     inkscape:label="Layer 1"
     inkscape:groupmode="layer"
     id="layer1"
     transform="translate(-72.975685,-117.44711)"><path
       style="fill:#ffffff;stroke:#ffffff"
       d="m 116.35641,146.18099 c 3.53305,0.0729 9.18101,3.11855 6.38687,7.54455 -1.47765,2.34065 -4.18098,4.33273 -6.13538,6.28713 l -12.32277,12.32277 c -1.6488,1.6488 -3.90935,2.82606 -5.37802,4.53159 -0.559155,0.64933 -1.369408,2.1849 -2.418993,1.9201 -1.708273,-0.43099 -3.831053,-3.43617 -5.023685,-4.69129 -0.480653,-0.50584 -1.243404,-1.17825 -0.821984,-1.9364 0.923363,-1.66115 4.881612,-2.93545 4.044329,-5.60815 -0.329689,-1.05241 -1.71698,-2.01038 -2.472936,-2.76634 -2.014565,-2.01457 -4.393447,-3.95584 -6.035644,-6.28713 h -0.251485 l -2.936128,1.90205 -2.596545,3.37914 h -0.251485 c -2.08761,-2.08761 -5.285046,-4.35346 -6.538614,-7.04159 2.580622,-1.85514 3.590398,-4.16527 5.787845,-6.26461 4.928435,-4.70841 10.147941,-9.49951 14.654249,-14.60865 2.42347,-2.74767 8.044496,-8.58422 11.407836,-3.25825 0.92466,1.46423 0.95351,3.137 1.34611,4.76716 h 0.25148 c 1.22137,-2.3544 3.68423,-4.13821 5.58196,-5.94774 3.49211,-3.32981 6.74817,-7.92047 11.26755,-9.89583 -0.77136,-3.60605 2.1945,-1.98049 4.02376,-2.11317 1.88108,-0.13643 4.89588,-1.30758 6.2848,0.65801 1.8508,2.61924 -0.008,6.88472 -1.40723,9.2512 -4.06169,6.86825 -10.84272,12.25229 -16.44589,17.85545 z"
       id="path1"
       sodipodi:nodetypes="csssssssssccccccsssccscsscc" /></g></svg>
